<svg width="20" height="25" viewBox="0 0 20 25" fill="none" xmlns="http://www.w3.org/2000/svg">
<path d="M18.698 4.23403L10.04 0.984028C9.78003 0.88003 9.59803 0.88003 9.49403 0.984028L0.810034 4.23403C0.602034 4.28603 0.441701 4.3857 0.329034 4.53303C0.216368 4.68036 0.160034 4.83203 0.160034 4.98803V12.58C0.160034 14.5214 0.836034 16.428 2.18803 18.3C3.2107 19.6694 4.55403 20.978 6.21803 22.226C7.10203 22.8847 8.06403 23.5 9.10403 24.072L9.26003 24.176C9.3467 24.2454 9.45937 24.28 9.59803 24.28C9.7367 24.28 9.8407 24.2454 9.91003 24.176L10.04 24.098C11.028 23.5607 11.964 22.9627 12.848 22.304C14.5467 21.056 15.9074 19.7387 16.93 18.352C18.3167 16.4627 19.01 14.5387 19.01 12.58V4.98803C19.114 4.83203 19.1314 4.68036 19.062 4.53303C18.9927 4.3857 18.8714 4.28603 18.698 4.23403ZM17.502 12.58C17.502 14.14 16.9387 15.7 15.812 17.26C14.9454 18.4387 13.7927 19.574 12.354 20.666C11.4354 21.3594 10.5167 21.9487 9.59803 22.434C8.71403 21.966 7.79537 21.3767 6.84203 20.666C5.43803 19.574 4.31137 18.4387 3.46203 17.26C2.3527 15.7 1.79803 14.14 1.79803 12.58V5.53403L9.70203 2.62203L17.502 5.53403V12.58ZM6.99803 12.034C6.8247 11.878 6.62537 11.8 6.40003 11.8C6.1747 11.8 5.97537 11.878 5.80203 12.034C5.6287 12.19 5.54637 12.385 5.55503 12.619C5.5637 12.853 5.64603 13.0567 5.80203 13.23L7.96003 15.388C8.1507 15.544 8.3327 15.622 8.50603 15.622C8.61003 15.622 8.71403 15.596 8.81803 15.544C8.92203 15.492 9.00003 15.44 9.05203 15.388L13.394 11.072C13.55 10.8987 13.628 10.695 13.628 10.461C13.628 10.227 13.55 10.032 13.394 9.87603C13.238 9.72003 13.0387 9.6377 12.796 9.62903C12.5534 9.62036 12.354 9.7027 12.198 9.87603L8.61003 13.542L6.99803 12.034Z" fill="#6B7280"/>
</svg>
