<svg width="29" height="31" viewBox="0 0 29 31" fill="none" xmlns="http://www.w3.org/2000/svg">
<path d="M2.01404 15.308C2.30871 15.308 2.56937 15.2004 2.79604 14.985C3.02271 14.7697 3.13604 14.492 3.13604 14.152V12.758C3.13604 11.9194 3.34571 11.1544 3.76504 10.463C4.18437 9.77168 4.74537 9.22202 5.44804 8.81402C6.15071 8.40602 6.89871 8.20202 7.69204 8.20202H24.964L21.156 12.044C20.9294 12.248 20.816 12.503 20.816 12.809C20.816 13.115 20.9294 13.3814 21.156 13.608C21.3374 13.7894 21.564 13.88 21.836 13.88C21.972 13.88 22.108 13.8517 22.244 13.795C22.38 13.7384 22.482 13.676 22.55 13.608L28.228 7.93002C28.2734 7.88468 28.3187 7.82802 28.364 7.76002C28.4094 7.69202 28.4547 7.65802 28.5 7.65802C28.636 7.36335 28.636 7.08002 28.5 6.80802C28.5 6.71735 28.4717 6.64368 28.415 6.58702C28.3584 6.53035 28.296 6.50202 28.228 6.50202L22.55 0.858017C22.346 0.63135 22.091 0.518017 21.785 0.518017C21.479 0.518017 21.2127 0.63135 20.986 0.858017C20.7594 1.08468 20.6517 1.34535 20.663 1.64002C20.6744 1.93468 20.782 2.18402 20.986 2.38802L24.828 6.23002H7.69204C6.46804 6.23002 5.33471 6.53035 4.29204 7.13102C3.24937 7.73168 2.42204 8.55335 1.81004 9.59602C1.19804 10.6387 0.892039 11.7833 0.892039 13.03V14.458C0.892039 14.6167 1.01104 14.798 1.24904 15.002C1.48704 15.206 1.74204 15.308 2.01404 15.308ZM27.514 15.988C27.2194 15.988 26.9587 16.0957 26.732 16.311C26.5054 16.5264 26.392 16.804 26.392 17.144V18.538C26.392 19.3767 26.1824 20.1417 25.763 20.833C25.3437 21.5244 24.7827 22.074 24.08 22.482C23.3774 22.89 22.6294 23.094 21.836 23.094H4.56404L8.40604 19.252C8.61004 19.048 8.71204 18.793 8.71204 18.487C8.71204 18.181 8.61004 17.9147 8.40604 17.688C8.20204 17.4614 7.94137 17.3537 7.62404 17.365C7.30671 17.3764 7.04604 17.484 6.84204 17.688L1.16404 23.366C1.11871 23.4114 1.07337 23.468 1.02804 23.536C0.982706 23.604 0.937372 23.638 0.892039 23.638C0.756039 23.9327 0.756039 24.216 0.892039 24.488C0.892039 24.5787 0.920372 24.6524 0.977039 24.709C1.03371 24.7657 1.09604 24.794 1.16404 24.794L6.84204 30.472C7.02337 30.6534 7.25571 30.744 7.53904 30.744C7.82237 30.744 8.05471 30.6534 8.23604 30.472C8.46271 30.2454 8.57604 29.979 8.57604 29.673C8.57604 29.367 8.46271 29.112 8.23604 28.908L4.42804 25.066H21.836C23.06 25.066 24.1934 24.7657 25.236 24.165C26.2787 23.5644 27.106 22.7427 27.718 21.7C28.33 20.6574 28.636 19.5127 28.636 18.266V16.838C28.636 16.634 28.5227 16.4414 28.296 16.26C28.0694 16.0787 27.8087 15.988 27.514 15.988Z" fill="#030712"/>
</svg>
