<svg width="24" height="18" viewBox="0 0 24 18" fill="none" xmlns="http://www.w3.org/2000/svg">
<path d="M20.518 0.23403H3.20203C2.6647 0.23403 2.16203 0.364031 1.69403 0.624031C1.22603 0.884029 0.853368 1.23936 0.576034 1.69003C0.298701 2.1407 0.160034 2.6347 0.160034 3.17203V13.988C0.160034 14.5254 0.294368 15.028 0.563034 15.496C0.831701 15.964 1.1957 16.3367 1.65503 16.614C2.11437 16.8914 2.63003 17.03 3.20203 17.03H20.518C21.0554 17.03 21.558 16.8957 22.026 16.627C22.494 16.3584 22.8667 15.9944 23.144 15.535C23.4214 15.0757 23.56 14.56 23.56 13.988V3.17203C23.56 2.6347 23.4214 2.1407 23.144 1.69003C22.8667 1.23936 22.494 0.884029 22.026 0.624031C21.558 0.364031 21.0554 0.23403 20.518 0.23403ZM3.20203 1.87203H20.518C20.8994 1.87203 21.2114 2.00203 21.454 2.26203C21.6967 2.52203 21.818 2.82536 21.818 3.17203V5.53803H1.90203V3.17203C1.90203 2.7907 2.02337 2.4787 2.26603 2.23603C2.5087 1.99336 2.8207 1.87203 3.20203 1.87203ZM20.518 15.392H3.20203C2.83803 15.392 2.53037 15.2577 2.27903 14.989C2.0277 14.7204 1.90203 14.4214 1.90203 14.092V7.38403H21.948V13.988C21.8787 14.3867 21.7184 14.7204 21.467 14.989C21.2157 15.2577 20.8994 15.392 20.518 15.392Z" fill="#6B7280"/>
</svg>
