<svg width="15" height="15" viewBox="0 0 15 15" fill="none" xmlns="http://www.w3.org/2000/svg">
<path d="M7.57403 1.74202C7.15403 1.74202 6.76437 1.84702 6.40503 2.05702C6.0457 2.26702 5.76103 2.55168 5.55103 2.91102C5.34103 3.27035 5.23603 3.66002 5.23603 4.08002H4.04603C4.04603 3.44535 4.20237 2.85968 4.51503 2.32302C4.8277 1.78635 5.25237 1.36168 5.78903 1.04902C6.3257 0.73635 6.91137 0.580017 7.54603 0.580017C8.1807 0.580017 8.76637 0.73635 9.30303 1.04902C9.8397 1.36168 10.2644 1.78635 10.577 2.32302C10.8897 2.85968 11.046 3.44535 11.046 4.08002H13.342C13.678 4.08002 13.9627 4.19902 14.196 4.43702C14.4294 4.67502 14.546 4.96668 14.546 5.31202C14.546 5.38668 14.5414 5.45668 14.532 5.52202L13.23 13.054C13.1554 13.4927 12.95 13.8567 12.614 14.146C12.278 14.4354 11.8907 14.58 11.452 14.58H3.64003C3.20137 14.58 2.81403 14.4354 2.47803 14.146C2.14203 13.8567 1.9367 13.4927 1.86203 13.054L0.560034 5.53602C0.504034 5.20002 0.571701 4.89202 0.763035 4.61202C0.954368 4.33202 1.21337 4.15935 1.54003 4.09402C1.60537 4.08468 1.67537 4.08002 1.75003 4.08002H9.91203C9.91203 3.66002 9.80704 3.27035 9.59704 2.91102C9.38704 2.55168 9.10237 2.26702 8.74304 2.05702C8.3837 1.84702 7.99403 1.74202 7.57403 1.74202ZM13.342 5.24202H1.75003C1.7407 5.24202 1.7267 5.26068 1.70803 5.29802V5.32602L3.01003 12.858C3.03803 13.0074 3.10337 13.1334 3.20603 13.236C3.3087 13.3387 3.43003 13.3947 3.57003 13.404L3.64003 13.418H11.452C11.592 13.418 11.7204 13.3737 11.837 13.285C11.9537 13.1964 12.0307 13.0774 12.068 12.928L13.384 5.31202C13.384 5.27468 13.3747 5.25602 13.356 5.25602L13.342 5.24202Z" fill="white"/>
</svg>
