<svg width="19" height="19" viewBox="0 0 19 19" fill="none" xmlns="http://www.w3.org/2000/svg">
<path d="M17.356 11.192C17.1653 11.192 16.9967 11.258 16.85 11.39C16.7033 11.522 16.63 11.698 16.63 11.918V15.592C16.63 15.9 16.5163 16.1604 16.289 16.373C16.0617 16.5857 15.8087 16.692 15.53 16.692H2.682C2.374 16.692 2.11367 16.5784 1.901 16.351C1.68834 16.1237 1.582 15.8707 1.582 15.592V11.918C1.582 11.7274 1.516 11.5587 1.384 11.412C1.252 11.2654 1.076 11.192 0.856005 11.192C0.636005 11.192 0.460005 11.2507 0.328005 11.368C0.196005 11.4854 0.130005 11.6394 0.130005 11.83V15.504C0.130005 15.9587 0.243672 16.3804 0.471005 16.769C0.698338 17.1577 1.00634 17.4694 1.395 17.704C1.78367 17.9387 2.21267 18.056 2.682 18.056H15.53C15.9847 18.056 16.4063 17.9424 16.795 17.715C17.1837 17.4877 17.4953 17.1797 17.73 16.791C17.9647 16.4024 18.082 15.9734 18.082 15.504V11.83C18.082 11.654 18.0087 11.5037 17.862 11.379C17.7153 11.2544 17.5467 11.192 17.356 11.192ZM4.992 5.86803L8.38 2.48003V11.83C8.38 12.0207 8.446 12.1894 8.578 12.336C8.71 12.4827 8.88967 12.556 9.117 12.556C9.34434 12.556 9.52034 12.4937 9.64501 12.369C9.76967 12.2444 9.832 12.0647 9.832 11.83V2.48003L13.242 5.86803C13.3593 5.98536 13.506 6.04403 13.682 6.04403C13.77 6.04403 13.858 6.0257 13.946 5.98903C14.034 5.95236 14.1 5.91203 14.144 5.86803C14.2907 5.73603 14.364 5.57103 14.364 5.37303C14.364 5.17503 14.2907 5.0027 14.144 4.85603L9.568 0.280031C9.53867 0.250696 9.502 0.221363 9.458 0.19203C9.41401 0.162697 9.392 0.133364 9.392 0.104031C9.20134 0.00136375 9.018 0.00136375 8.842 0.104031C8.78334 0.104031 8.73567 0.122364 8.69901 0.159031C8.66234 0.195698 8.644 0.236031 8.644 0.280031L4.068 4.85603C3.92134 5.0027 3.848 5.17503 3.848 5.37303C3.848 5.57103 3.92134 5.73603 4.068 5.86803C4.21467 6.00003 4.36867 6.0697 4.53 6.07703C4.69134 6.08436 4.84534 6.0147 4.992 5.86803Z" fill="#030712"/>
</svg>
